<svg xmlns="http://www.w3.org/2000/svg" viewBox="0 0 512 512" role="img" aria-label="Acura logo">
  <!-- Oválný rám -->
  <path d="M256 50
           C150 50, 70 130, 70 230
           C70 330, 150 410, 256 410
           C362 410, 442 330, 442 230
           C442 130, 362 50, 256 50
           Z
           M256 90
           C340 90, 402 150, 402 230
           C402 310, 340 370, 256 370
           C172 370, 110 310, 110 230
           C110 150, 172 90, 256 90
           Z" fill="#000"/>

  <!-- Stylizované písmeno "A" -->
  <path d="M256 120
           L336 370
           L304 370
           L256 180
           L208 370
           L176 370
           Z" fill="#000"/>
</svg>
